<svg xmlns="http://www.w3.org/2000/svg" viewBox="0 0 24 24" width="24" height="24" fill="none" stroke="currentColor" stroke-width="1.5" stroke-linecap="round" stroke-linejoin="round">
  <path d="M10.3 2.3 L10.3 4.2 Q9.4 4.5 8.6 5 L7 3.9 L4 7 L5 8.6 Q4.5 9.4 4.2 10.3 L2.3 10.3 L2.3 13.7 L4.2 13.7 Q4.5 14.6 5 15.4 L3.9 17 L7 20 L8.6 19 Q9.4 19.5 10.3 19.8 L10.3 21.7 L13.7 21.7 L13.7 19.8 Q14.6 19.5 15.4 19 L17 20.1 L20 17 L19 15.4 Q19.5 14.6 19.8 13.7 L21.7 13.7 L21.7 10.3 L19.8 10.3 Q19.5 9.4 19 8.6 L20.1 7 L17 4 L15.4 5 Q14.6 4.5 13.7 4.2 L13.7 2.3 Z"/>
  <circle cx="12" cy="12" r="3"/>
</svg>
